<svg width="182" height="18" viewBox="0 0 182 18" fill="none" xmlns="http://www.w3.org/2000/svg">
<path d="M155.436 0.00171928C150.305 0.00171928 146.59 4.06091 146.59 9.00086V9.03915C146.59 13.9791 150.266 18 155.36 18C160.453 18 164.206 13.9408 164.206 9.00086V8.96257C164.244 4.02261 160.568 0.00171928 155.436 0.00171928ZM160.414 9.03915C160.414 11.9112 158.078 14.2089 155.206 14.1706C152.334 14.1706 150.037 11.8346 150.075 8.96257V8.92427C150.075 6.05221 152.411 3.75455 155.283 3.79285C158.155 3.79285 160.453 6.12879 160.414 9.00086V9.03915ZM139.697 0.422956H143.488V17.6171H139.697V0.422956ZM136.404 14.1323V17.5788H123.154V0.46125H126.945V13.9408H136.442L136.404 14.1323ZM181.821 0.422956V17.6171H178.145L170.409 6.81809V17.6171H166.733V0.46125H170.409L178.145 11.3751V0.46125L181.821 0.422956ZM115.342 3.86944H109.751V17.6171H105.96V3.90773H100.369V0.46125H115.304L115.342 3.86944ZM71.3421 3.79285V7.08615H80.303V10.456H71.3421V14.2089H80.7242V17.5788H67.551V0.422956H80.7242V3.79285H71.3421ZM95.0845 11.7963C94.3569 13.2898 92.8252 14.2472 91.1402 14.2089C88.4213 14.2089 86.3917 11.9878 86.3917 9.00086V8.96257C86.3917 6.01391 88.4213 3.83114 91.1019 3.83114C92.7103 3.75455 94.2038 4.63532 94.8931 6.0905H99.2969C98.2629 2.41425 94.9314 -0.0748691 91.1402 0.00171928C86.1237 0.00171928 82.4857 4.06091 82.4857 9.00086V9.03915C82.4857 13.9791 86.0854 18 91.0636 18C95.2377 18 98.3778 15.3577 99.2969 11.7963H95.0845ZM64.5257 0.422956V12.4473V12.4856C64.4874 15.5109 61.6537 17.9617 58.0923 18H57.9774C57.5179 18 57.0584 17.9617 56.5988 17.8851C54.3012 17.4639 52.4631 16.047 51.7355 14.1706C51.544 13.711 51.4291 13.2132 51.4291 12.6771C51.4291 12.6388 51.4291 12.5239 51.4291 12.4473V12.3325H55.2585C55.2585 12.3708 55.2585 12.409 55.2585 12.4473C55.2585 12.4856 55.2585 12.6388 55.2968 12.7537C55.3351 12.8686 55.3351 12.9069 55.3734 13.0218C55.7181 13.8259 56.4457 14.362 57.2881 14.4769C57.4796 14.5152 57.6328 14.5152 57.8243 14.5152H57.8626C59.1263 14.5152 60.1602 13.711 60.3517 12.6771C60.39 12.5239 60.39 12.2176 60.39 12.2176V8.57962V3.90773V0.46125L64.5257 0.422956ZM41.7024 0.00171928C36.6093 0.00171928 32.8947 4.06091 32.8947 9.00086V9.03915C32.8947 13.9791 36.571 18 41.6641 18C46.7572 18 50.5101 13.9408 50.5101 9.00086V8.96257C50.5101 4.02261 46.8721 0.00171928 41.7024 0.00171928ZM46.8721 9.03915C46.8721 11.9112 44.5362 14.2089 41.6641 14.1706C38.792 14.1706 36.4944 11.8346 36.5327 8.96257V8.92427C36.5327 6.05221 38.8686 3.75455 41.7407 3.79285C44.6128 3.79285 46.9104 6.12879 46.8721 9.00086V9.03915ZM8.27155 0.422956H0V17.6171H3.79113V12.1027H8.30984C11.5266 12.1027 14.1306 9.49868 14.1306 6.24368C14.0923 3.06526 11.4883 0.46125 8.27155 0.422956ZM7.9269 8.65621H3.75283V3.83114H7.9269C9.2672 3.83114 10.3394 4.90338 10.3394 6.24368C10.3394 7.58397 9.2672 8.65621 7.9269 8.65621ZM27.4187 11.7197C30.4439 10.5709 31.9757 7.20103 30.8268 4.21408C29.9461 1.91643 27.7633 0.422956 25.3508 0.422956H16.275V17.6171H20.0662V12.1027H23.2829L27.1506 17.6171H31.5544L27.4187 11.7197ZM24.6615 8.65621H20.0662V3.83114H24.6615C26.0018 3.83114 27.074 4.90338 27.074 6.24368C27.1123 7.58397 26.0018 8.65621 24.6615 8.65621Z" fill="white"/>
</svg>
